<svg clip-rule="evenodd" fill-rule="evenodd" stroke-linejoin="round" stroke-miterlimit="2" viewBox="0 0 24 37" xmlns="http://www.w3.org/2000/svg" xmlns:xlink="http://www.w3.org/1999/xlink"><linearGradient id="a" gradientTransform="matrix(0 19.8423 -21.1492 0 12 8.07887)" gradientUnits="userSpaceOnUse" x1="0" x2="1" y1="0" y2="0"><stop offset="0" stop-color="#c3c3c3"/><stop offset="1" stop-color="#c5c5c5"/></linearGradient><linearGradient id="b"><stop offset="0" stop-color="#d8d8d8"/><stop offset="1" stop-color="#818181"/></linearGradient><linearGradient id="c" gradientTransform="matrix(-.00000135 19.8425 -19.8425 -.00000135 12.0514 8.07874)" gradientUnits="userSpaceOnUse" x1="0" x2="1" xlink:href="#b" y1="0" y2="0"/><linearGradient id="d" gradientTransform="matrix(0 14.5417 -14.5417 0 12.0441 10.7291)" gradientUnits="userSpaceOnUse" x1="0" x2="1" y1="0" y2="0"><stop offset="0" stop-color="#4a4a4a"/><stop offset="1" stop-color="#d8d8d8"/></linearGradient><linearGradient id="e" gradientTransform="matrix(0 12.219 -12.219 0 12.0429 11.9087)" gradientUnits="userSpaceOnUse" x1="0" x2="1" xlink:href="#b" y1="0" y2="0"/><linearGradient id="f" gradientTransform="matrix(0 -15.9753 15.9753 0 12.0334 21.4414)" gradientUnits="userSpaceOnUse" x1="0" x2="1" y1="0" y2="0"><stop offset="0" stop-color="#9f9f9f"/><stop offset="1" stop-color="#cbcbcb"/></linearGradient><linearGradient id="g" gradientTransform="matrix(0 -2.00333 2.13425 0 12.0429 8.07874)" gradientUnits="userSpaceOnUse" x1="0" x2="1" y1="0" y2="0"><stop offset="0" stop-color="#8c8c8c" stop-opacity="0"/><stop offset="1" stop-color="#fff" stop-opacity=".5"/></linearGradient><linearGradient id="h" gradientTransform="matrix(0 7.25578 4.01569 0 12.0429 5.1544)" gradientUnits="userSpaceOnUse" x1="0" x2="1" y1="0" y2="0"><stop offset="0" stop-color="#8c8c8c" stop-opacity="0"/><stop offset="1" stop-color="#e7e7e7" stop-opacity=".36"/></linearGradient><path d="m17.889 7.8h-11.778l-5.889 10.2 5.889 10.2h11.778l5.889-10.2z" fill="#595959"/><path d="m6.272 8.079h11.456l5.728 9.921-5.728 9.921h-11.456l-5.728-9.921z" fill="url(#a)"/><circle cx="12.051" cy="18" fill="url(#c)" r="9.921"/><circle cx="12.051" cy="18" fill="#c0c0c0" r="9.218"/><circle cx="12.044" cy="18" fill="url(#d)" r="7.271"/><circle cx="12.044" cy="18" r="6.378"/><ellipse cx="12.044" cy="18.901" fill-opacity=".22" rx="6.262" ry="6.888"/><circle cx="12.043" cy="18" fill="url(#e)" r="6.128"/><circle cx="12.043" cy="18" fill="#c2c2c2" r="5.663"/><circle cx="12.043" cy="18" r="5.035"/><path d="m16.257 26.215c.036.222.055.449.055.681 0 2.335-1.905 4.23-4.252 4.23s-4.252-1.895-4.252-4.23c0-.232.019-.459.055-.681l.597-7.4c0-1.977 1.613-3.582 3.6-3.582s3.6 1.605 3.6 3.582z" fill-opacity=".22"/><path d="m15.934 17.855.595-7.418c.037-.234.057-.474.057-.719l-.291.291.291-.291c0-2.507-2.036-4.543-4.543-4.543s-4.543 2.036-4.543 4.543c0 .246.02.488.057.724v-.005l.595 7.417c.007 2.141 1.747 3.878 3.891 3.878 2.143 0 3.884-1.736 3.891-3.877zm-.222.269-.012.003.002-.001zm.053-.019-.012.006zm.025-.013-.012.007zm.022-.014-.01.007zm.022-.017-.01.008zm.019-.019-.008.009zm.018-.021-.008.01zm.03-.046-.006.012zm.028-.079-.004.014.003-.01zm.004-.028-.002.014.001-.011zm.362-7.859-.009-.009z" fill="#595959"/><path d="m7.846 10.403c-.036-.223-.055-.452-.055-.685 0-2.347 1.905-4.252 4.252-4.252s4.252 1.905 4.252 4.252c0 .233-.019.462-.055.685l-.597 7.438c0 1.987-1.613 3.6-3.6 3.6s-3.6-1.613-3.6-3.6z" fill="url(#f)"/><ellipse cx="12.043" cy="7.077" fill="url(#g)" rx="1.988" ry="1.002"/><ellipse cx="12.043" cy="8.782" fill="url(#h)" rx="3.74" ry="3.628"/></svg>