<svg clip-rule="evenodd" fill-rule="evenodd" stroke-linejoin="round" stroke-miterlimit="2" viewBox="0 0 24 37" xmlns="http://www.w3.org/2000/svg" xmlns:xlink="http://www.w3.org/1999/xlink"><linearGradient id="a" gradientTransform="matrix(0 19.8423 -21.1492 0 11.9634 8.07887)" gradientUnits="userSpaceOnUse" x1="0" x2="1" y1="0" y2="0"><stop offset="0" stop-color="#c3c3c3"/><stop offset="1" stop-color="#c5c5c5"/></linearGradient><linearGradient id="b"><stop offset="0" stop-color="#d8d8d8"/><stop offset="1" stop-color="#818181"/></linearGradient><linearGradient id="c" gradientTransform="matrix(-.00000135 19.8425 -19.8425 -.00000135 12.0148 8.07874)" gradientUnits="userSpaceOnUse" x1="0" x2="1" xlink:href="#b" y1="0" y2="0"/><linearGradient id="d" gradientTransform="matrix(0 14.5417 -14.5417 0 12.0075 10.7291)" gradientUnits="userSpaceOnUse" x1="0" x2="1" y1="0" y2="0"><stop offset="0" stop-color="#4a4a4a"/><stop offset="1" stop-color="#d8d8d8"/></linearGradient><linearGradient id="e" gradientTransform="matrix(0 12.219 -12.219 0 12.0063 11.9087)" gradientUnits="userSpaceOnUse" x1="0" x2="1" xlink:href="#b" y1="0" y2="0"/><radialGradient id="f" cx="11.9634" cy="18" gradientUnits="userSpaceOnUse" r="3.31859"><stop offset="0" stop-color="#b9b9b9"/><stop offset=".55" stop-color="#bbb"/><stop offset="1" stop-color="#c2c2c2"/></radialGradient><linearGradient id="g" gradientTransform="matrix(0 -2.00333 2.13425 0 11.9634 16.3317)" gradientUnits="userSpaceOnUse" x1="0" x2="1" y1="0" y2="0"><stop offset="0" stop-color="#8c8c8c" stop-opacity="0"/><stop offset="1" stop-color="#fff" stop-opacity=".5"/></linearGradient><path d="m17.853 7.8h-11.779l-5.889 10.2 5.889 10.2h11.779l5.889-10.2z" fill="#595959"/><path d="m6.235 8.079h11.456l5.728 9.921-5.728 9.921h-11.456l-5.728-9.921z" fill="url(#a)"/><circle cx="12.015" cy="18" fill="url(#c)" r="9.921"/><circle cx="12.015" cy="18" fill="#c0c0c0" r="9.218"/><circle cx="12.007" cy="18" fill="url(#d)" r="7.271"/><circle cx="12.007" cy="18" r="6.378"/><ellipse cx="12.007" cy="18.901" fill-opacity=".22" rx="6.25" ry="6.888"/><circle cx="12.006" cy="18" fill="url(#e)" r="6.128"/><circle cx="12.006" cy="18" fill="#c2c2c2" r="5.663"/><circle cx="12.006" cy="18" r="5.035"/><path d="m16.284 26.389c.037.271.056.549.056.832 0 2.854-1.961 5.171-4.377 5.171s-4.377-2.317-4.377-5.171c0-.283.019-.561.056-.832l.12-9.046c0-2.416 2.156-4.378 4.201-4.378s4.202 1.962 4.202 4.378z" fill-opacity=".22"/><circle cx="11.963" cy="18" fill="url(#f)" r="4.252"/><ellipse cx="11.963" cy="15.33" fill="url(#g)" rx="1.988" ry="1.002"/></svg>