<svg clip-rule="evenodd" fill-rule="evenodd" stroke-linejoin="round" stroke-miterlimit="2" viewBox="0 0 24 37" xmlns="http://www.w3.org/2000/svg" xmlns:xlink="http://www.w3.org/1999/xlink"><linearGradient id="a" gradientTransform="matrix(0 19.8423 -21.1492 0 11.9594 8.07887)" gradientUnits="userSpaceOnUse" x1="0" x2="1" y1="0" y2="0"><stop offset="0" stop-color="#c3c3c3"/><stop offset="1" stop-color="#c5c5c5"/></linearGradient><linearGradient id="b"><stop offset="0" stop-color="#d8d8d8"/><stop offset="1" stop-color="#818181"/></linearGradient><linearGradient id="c" gradientTransform="matrix(-.00000135 19.8425 -19.8425 -.00000135 12.0108 8.07874)" gradientUnits="userSpaceOnUse" x1="0" x2="1" xlink:href="#b" y1="0" y2="0"/><linearGradient id="d" gradientTransform="matrix(0 14.5417 -14.5417 0 12.0035 10.7291)" gradientUnits="userSpaceOnUse" x1="0" x2="1" y1="0" y2="0"><stop offset="0" stop-color="#4a4a4a"/><stop offset="1" stop-color="#d8d8d8"/></linearGradient><linearGradient id="e" gradientTransform="matrix(0 12.219 -12.219 0 12.0035 11.9087)" gradientUnits="userSpaceOnUse" x1="0" x2="1" xlink:href="#b" y1="0" y2="0"/><linearGradient id="f" gradientTransform="matrix(0 15.9753 -15.9753 0 11.968 14.4932)" gradientUnits="userSpaceOnUse" x1="0" x2="1" y1="0" y2="0"><stop offset="0" stop-color="#a0a0a0"/><stop offset=".46" stop-color="#bfbfbf"/><stop offset="1" stop-color="#c8c8c8"/></linearGradient><linearGradient id="g" gradientTransform="matrix(0 -2.00333 2.13425 0 11.9585 25.8504)" gradientUnits="userSpaceOnUse" x1="0" x2="1" y1="0" y2="0"><stop offset="0" stop-color="#8c8c8c" stop-opacity="0"/><stop offset="1" stop-color="#fff" stop-opacity=".5"/></linearGradient><path d="m17.849 7.8h-11.779l-5.889 10.2 5.889 10.2h11.779l5.889-10.2z" fill="#595959"/><path d="m6.231 8.079h11.456l5.729 9.921-5.729 9.921h-11.456l-5.728-9.921z" fill="url(#a)"/><circle cx="12.011" cy="18" fill="url(#c)" r="9.921"/><circle cx="12.011" cy="18" fill="#c0c0c0" r="9.218"/><circle cx="12.003" cy="18" fill="url(#d)" r="7.271"/><circle cx="12.003" cy="18" r="6.378"/><ellipse cx="12.003" cy="18.901" fill-opacity=".22" rx="6.25" ry="6.888"/><circle cx="12.003" cy="18" fill="url(#e)" r="6.128"/><circle cx="12.003" cy="18" fill="#c2c2c2" r="5.663"/><circle cx="12.003" cy="18" r="5.035"/><path d="m16.618 29.96c.04.267.061.54.061.819 0 2.808-2.115 5.087-4.72 5.087-2.604 0-4.719-2.279-4.719-5.087 0-.279.021-.552.061-.819l.663-8.9c0-2.377 1.79-4.307 3.995-4.307 2.206 0 3.996 1.93 3.996 4.307z" fill-opacity=".22"/><path d="m8.068 18.079-.596 7.419c-.037.234-.056.474-.056.719l.291-.291-.291.291c0 2.507 2.035 4.542 4.543 4.542 2.507 0 4.542-2.035 4.542-4.542 0-.247-.019-.489-.057-.724l.001.005-.596-7.417c-.006-2.142-1.747-3.879-3.89-3.879s-3.884 1.736-3.891 3.877zm.221-.268.013-.003h-.002zm-.053.019.012-.006zm-.024.012.011-.006zm-.023.015.011-.007zm-.021.017.009-.008zm-.02.019.009-.009zm-.018.02.008-.009zm-.03.046.007-.011zm-.027.08.003-.015-.003.011zm-.004.028.002-.015-.002.011zm-.362 7.859.009.009z" fill="#595959"/><path d="m16.156 25.532c.036.223.054.451.054.685 0 2.346-1.905 4.251-4.251 4.251-2.347 0-4.252-1.905-4.252-4.251 0-.234.018-.462.054-.685l.598-7.439c0-1.987 1.613-3.6 3.6-3.6 1.986 0 3.6 1.613 3.6 3.6z" fill="url(#f)"/><ellipse cx="11.959" cy="24.849" fill="url(#g)" rx="1.988" ry="1.002"/></svg>