<?xml version="1.0" encoding="UTF-8" standalone="no"?>
<svg
   width="60.959995mm"
   height="128.49991mm"
   viewBox="0 0 230.39999 485.66895"
   version="1.1"
   xml:space="preserve"
   style="clip-rule:evenodd;fill-rule:evenodd;stroke-linecap:square;stroke-linejoin:round;stroke-miterlimit:2"
   id="svg497"
   sodipodi:docname="WarpCore-Raw.svg"
   inkscape:version="1.2.1 (9c6d41e4, 2022-07-14)"
   xmlns:inkscape="http://www.inkscape.org/namespaces/inkscape"
   xmlns:sodipodi="http://sodipodi.sourceforge.net/DTD/sodipodi-0.dtd"
   xmlns="http://www.w3.org/2000/svg"
   xmlns:svg="http://www.w3.org/2000/svg"
   xmlns:serif="http://www.serif.com/"><defs
   id="defs501" /><sodipodi:namedview
   id="namedview499"
   pagecolor="#ffffff"
   bordercolor="#999999"
   borderopacity="1"
   inkscape:showpageshadow="0"
   inkscape:pageopacity="0"
   inkscape:pagecheckerboard="0"
   inkscape:deskcolor="#d1d1d1"
   showgrid="false"
   inkscape:zoom="2.4176955"
   inkscape:cx="113.12426"
   inkscape:cy="243"
   inkscape:window-width="2560"
   inkscape:window-height="1395"
   inkscape:window-x="0"
   inkscape:window-y="23"
   inkscape:window-maximized="1"
   inkscape:current-layer="svg497"
   inkscape:document-units="mm" />
    
    
    <g
   id="g856"><rect
     id="panel"
     x="0"
     y="0"
     width="230.39999"
     height="485.66901" /><g
     id="silkscreen">
        <g
   id="g141">
            <path
   d="m 124.644,62.873 c -6.175,-1.748 -12.713,-1.748 -18.888,0 l 3.841,11.527 c 3.676,-0.943 7.53,-0.943 11.206,0 z m -23.645,1.732 c -5.854,2.629 -10.863,6.832 -14.469,12.14 l 10.352,6.362 c 2.209,-3.086 5.162,-5.564 8.585,-7.203 z m -17,16.525 c -2.794,5.777 -3.929,12.216 -3.28,18.6 l 12.019,-1.78 c -0.291,-3.784 0.378,-7.58 1.946,-11.036 z m -2.4,23.586 c 1.572,6.221 4.842,11.884 9.443,16.357 l 8.063,-9.09 c -2.656,-2.711 -4.583,-6.049 -5.603,-9.705 z m 13.321,19.611 c 5.204,3.755 11.349,5.991 17.749,6.46 l 0.333,-12.146 c -3.777,-0.37 -7.399,-1.688 -10.53,-3.832 z m 22.811,6.46 c 6.4,-0.469 12.545,-2.705 17.749,-6.46 l -7.552,-9.518 c -3.131,2.144 -6.753,3.462 -10.53,3.832 z m 21.627,-9.714 c 4.601,-4.473 7.871,-10.136 9.443,-16.357 l -11.903,-2.438 c -1.02,3.656 -2.947,6.994 -5.603,9.705 z M 149.681,99.73 c 0.649,-6.384 -0.486,-12.823 -3.28,-18.6 l -10.685,5.784 c 1.568,3.456 2.237,7.252 1.946,11.036 z M 143.87,76.745 c -3.606,-5.308 -8.615,-9.511 -14.469,-12.14 l -4.468,11.299 c 3.423,1.639 6.376,4.117 8.585,7.203 z"
   style="fill:#525252"
   id="path133" />
            <path
   d="m 74.848,112.258 c -1.987,-4.975 -3.08,-10.403 -3.08,-16.084 0,-12.476 5.272,-23.731 13.708,-31.656 7.772,-7.301 18.229,-11.776 29.724,-11.776 23.971,0 43.432,19.461 43.432,43.432 0,23.971 -19.461,43.433 -43.432,43.433 -2.136,0 -4.237,-0.155 -6.29,-0.453"
   style="fill:none;stroke:#525252;stroke-width:1.33px"
   id="path135" />
            <path
   d="m 157.145,124.961 c -9.176,13.338 -24.547,22.09 -41.945,22.09 -28.08,0 -50.877,-22.797 -50.877,-50.877 0,-28.079 22.797,-50.877 50.877,-50.877 13.386,0 25.571,5.181 34.659,13.645"
   style="fill:none;stroke:#525252;stroke-width:1.33px"
   id="path137" />
            <path
   d="m 115.2,38.121 c 32.041,0 58.054,26.013 58.054,58.053 0,32.041 -26.013,58.054 -58.054,58.054 -32.041,0 -58.054,-26.013 -58.054,-58.054 0,-3.583 0.326,-7.091 0.948,-10.496"
   style="fill:none;stroke:#525252;stroke-width:1.33px"
   id="path139" />
        </g>
        <g
   id="g151">
            <path
   d="m 124.932,250.074 c -6.025,-3.467 -13.439,-3.467 -19.464,0 1.391,2.417 3.472,3.787 6.243,4.11 2.284,-0.623 4.694,-0.623 6.978,0 2.771,-0.323 4.852,-1.693 6.243,-4.11 z m -22.808,2.429 c -5.159,4.659 -7.45,11.71 -6.015,18.512 2.729,-0.576 4.676,-2.132 5.839,-4.667 0.113,-2.365 0.858,-4.657 2.156,-6.637 0.549,-2.735 -0.111,-5.138 -1.98,-7.208 z m -4.737,22.443 c 2.836,6.346 8.834,10.704 15.746,11.44 0.296,-2.773 -0.582,-5.105 -2.634,-6.994 -2.214,-0.839 -4.164,-2.256 -5.646,-4.102 -2.431,-1.368 -4.92,-1.482 -7.466,-0.344 z m 19.88,11.44 c 6.912,-0.736 12.91,-5.094 15.746,-11.44 -2.546,-1.138 -5.035,-1.024 -7.466,0.344 -1.482,1.846 -3.432,3.263 -5.646,4.102 -2.052,1.889 -2.93,4.221 -2.634,6.994 z m 17.024,-15.371 c 1.435,-6.802 -0.856,-13.853 -6.015,-18.512 -1.869,2.07 -2.529,4.473 -1.98,7.208 1.298,1.98 2.043,4.272 2.156,6.637 1.163,2.535 3.11,4.091 5.839,4.667 z"
   style="fill:#525252"
   id="path143" />
            <path
   d="m 115.2,256.305 c 5.864,0 10.625,4.761 10.625,10.625 0,5.864 -4.761,10.625 -10.625,10.625 -5.864,0 -10.625,-4.761 -10.625,-10.625 0,-5.864 4.761,-10.625 10.625,-10.625 z m 0,0.667 c 5.496,0 9.958,4.462 9.958,9.958 0,5.496 -4.462,9.958 -9.958,9.958 -5.496,0 -9.958,-4.462 -9.958,-9.958 0,-5.496 4.462,-9.958 9.958,-9.958 z"
   style="fill:#525252"
   id="path145" />
            <path
   d="m 116.509,275.311 c -0.427,0.066 -0.864,0.101 -1.309,0.101 h -0.02 l 0.002,-0.667 c 0.006,0 0.012,0 0.018,0 0.41,0 0.813,-0.032 1.206,-0.093 z m -3.951,-0.32 0.208,-0.633 c 0.385,0.126 0.783,0.223 1.192,0.289 l -0.105,0.658 c -0.444,-0.071 -0.876,-0.176 -1.295,-0.314 z m 6.478,-0.496 c -0.394,0.201 -0.805,0.371 -1.231,0.508 l -0.205,-0.634 c 0.392,-0.127 0.771,-0.283 1.134,-0.468 z m -8.84,-0.718 0.394,-0.537 c 0.33,0.241 0.679,0.457 1.044,0.645 l -0.305,0.593 c -0.396,-0.204 -0.775,-0.439 -1.133,-0.701 z m 10.99,-0.84 c -0.315,0.313 -0.654,0.602 -1.014,0.863 l -0.391,-0.539 c 0.332,-0.241 0.644,-0.508 0.934,-0.797 z m -12.862,-1.043 0.54,-0.391 c 0.24,0.333 0.507,0.646 0.795,0.936 l -0.472,0.47 c -0.314,-0.315 -0.602,-0.654 -0.863,-1.015 z m 14.428,-1.102 c -0.203,0.397 -0.437,0.776 -0.699,1.134 l -0.538,-0.394 c 0.241,-0.329 0.456,-0.678 0.644,-1.044 z m -15.629,-1.267 0.635,-0.204 c 0.126,0.393 0.283,0.772 0.467,1.135 l -0.595,0.301 c -0.2,-0.394 -0.37,-0.806 -0.507,-1.232 z m 16.454,-1.258 c -0.071,0.444 -0.176,0.877 -0.312,1.295 l -0.634,-0.207 c 0.126,-0.385 0.222,-0.783 0.287,-1.192 z m -16.859,-1.366 0.667,0.002 c 0,0.009 0,0.018 0,0.027 0,0.407 0.031,0.807 0.091,1.198 l -0.659,0.101 c -0.065,-0.423 -0.099,-0.857 -0.099,-1.299 z m 16.862,-1.289 c 0.067,0.429 0.102,0.869 0.102,1.318 v 0.01 l -0.667,-10e-4 c 0,-0.003 0,-0.006 0,-0.009 0,-0.413 -0.032,-0.819 -0.094,-1.215 z m -16.438,-1.333 0.633,0.208 c -0.127,0.385 -0.225,0.783 -0.29,1.192 l -0.658,-0.106 c 0.071,-0.444 0.177,-0.876 0.315,-1.294 z m 15.619,-1.194 c 0.201,0.394 0.372,0.805 0.51,1.231 l -0.635,0.206 c -0.127,-0.393 -0.284,-0.771 -0.469,-1.134 z m -14.403,-1.166 0.538,0.394 c -0.242,0.329 -0.458,0.678 -0.647,1.043 l -0.592,-0.305 c 0.204,-0.397 0.439,-0.776 0.701,-1.132 z m 12.842,-0.982 c 0.314,0.314 0.603,0.653 0.865,1.013 l -0.539,0.392 c -0.242,-0.332 -0.509,-0.644 -0.798,-0.934 z m -10.956,-0.889 0.39,0.541 c -0.333,0.24 -0.646,0.505 -0.937,0.794 l -0.469,-0.473 c 0.315,-0.313 0.655,-0.601 1.016,-0.862 z m 8.809,-0.675 c 0.398,0.203 0.777,0.437 1.135,0.698 l -0.393,0.539 c -0.33,-0.241 -0.679,-0.456 -1.045,-0.643 z m -6.439,-0.523 0.203,0.635 c -0.392,0.126 -0.772,0.282 -1.135,0.465 l -0.3,-0.594 c 0.394,-0.2 0.806,-0.369 1.232,-0.506 z m 3.914,-0.298 c 0.444,0.07 0.877,0.174 1.295,0.31 l -0.206,0.634 c -0.385,-0.125 -0.784,-0.221 -1.193,-0.286 z m -1.328,0.563 c -0.404,0 -0.801,0.031 -1.189,0.09 l -0.1,-0.659 c 0.42,-0.065 0.851,-0.098 1.289,-0.098 z"
   style="fill:#525252"
   id="path147" />
            <path
   d="m 115.2,260.464 c 3.569,0 6.466,2.897 6.466,6.466 0,3.569 -2.897,6.466 -6.466,6.466 -3.569,0 -6.466,-2.897 -6.466,-6.466 0,-3.569 2.897,-6.466 6.466,-6.466 z m 0,0.666 c 3.201,0 5.8,2.599 5.8,5.8 0,3.201 -2.599,5.8 -5.8,5.8 -3.201,0 -5.8,-2.599 -5.8,-5.8 0,-3.201 2.599,-5.8 5.8,-5.8 z"
   style="fill:#525252"
   id="path149" />
        </g>
        <g
   id="module-name"
   serif:id="module name">
            <path
   d="m 63.681,25.073 -3.893,-10.108 -3.94,10.161 c 0,0 -3.269,-10.489 -3.269,-10.489 h -1.946 l 5.038,16.167 4.113,-10.645 c 0,0 4.073,10.655 4.073,10.655 l 5.017,-16.177 h -1.968 z"
   style="fill:#ffffff;fill-rule:nonzero"
   id="path153" />
            <path
   d="m 74.586,26.075 h 6.963 c 0,0 1.589,3.592 1.589,3.592 h 2.029 L 78.213,13.834 70.85,29.667 h 2.06 z m 3.562,-7.686 2.576,5.825 c 0,0 -5.272,0 -5.272,0 z"
   style="fill:#ffffff;fill-rule:nonzero"
   id="path155" />
            <path
   d="m 90.197,21.646 6.603,8.021 h 2.449 l -5.142,-6.235 c 0.172,-0.013 0.34,-0.028 0.504,-0.048 0.469,-0.055 0.949,-0.193 1.442,-0.415 0.719,-0.304 1.344,-0.802 1.872,-1.498 0.538,-0.709 0.808,-1.513 0.808,-2.41 0,-0.572 -0.126,-1.128 -0.379,-1.667 -0.25,-0.532 -0.607,-1.007 -1.073,-1.425 -0.477,-0.429 -1.033,-0.76 -1.668,-0.99 -0.627,-0.227 -1.301,-0.342 -2.023,-0.342 0,0 -5.381,0 -5.381,0 v 15.03 H 90.07 V 16.498 c 0,0 3.52,0 3.52,0 0.664,0 1.251,0.126 1.758,0.387 0.493,0.253 0.875,0.575 1.141,0.973 0.253,0.38 0.383,0.781 0.383,1.203 0,0.469 -0.153,0.897 -0.453,1.288 -0.313,0.406 -0.68,0.713 -1.104,0.916 -0.632,0.26 -1.444,0.381 -2.443,0.381 0,0 -2.675,0 -2.675,0 z"
   style="fill:#ffffff;fill-rule:nonzero"
   id="path157" />
            <path
   d="m 102.771,29.667 h 1.861 v -6.138 c 0,0 3.608,0 3.608,0 0.9,0 1.732,-0.199 2.498,-0.593 0.773,-0.399 1.386,-0.938 1.84,-1.616 0.465,-0.693 0.695,-1.439 0.695,-2.237 0,-0.815 -0.232,-1.565 -0.696,-2.25 -0.454,-0.669 -1.066,-1.205 -1.839,-1.603 -0.766,-0.395 -1.598,-0.593 -2.498,-0.593 0,0 -5.492,0 -5.492,0 z m 1.841,-13.147 h 3.628 c 0.583,0 1.121,0.118 1.613,0.358 0.482,0.234 0.867,0.549 1.152,0.948 0.271,0.38 0.407,0.799 0.407,1.257 0,0.445 -0.137,0.856 -0.407,1.235 -0.285,0.399 -0.67,0.714 -1.152,0.948 -0.492,0.24 -1.03,0.358 -1.613,0.358 h -3.61 z"
   style="fill:#ffffff;fill-rule:nonzero"
   id="path159" />
            <path
   d="m 131.813,29.819 c 1.156,0 2.251,-0.25 3.284,-0.751 1.031,-0.501 1.909,-1.205 2.633,-2.114 l 0.278,-0.349 -1.474,-1.147 -0.273,0.333 c -0.554,0.675 -1.219,1.202 -1.996,1.581 -0.774,0.376 -1.591,0.565 -2.452,0.565 -1.036,0 -1.991,-0.259 -2.866,-0.777 -0.878,-0.52 -1.577,-1.226 -2.097,-2.117 -0.519,-0.89 -0.778,-1.861 -0.778,-2.913 0,-1.051 0.259,-2.022 0.778,-2.912 0.52,-0.892 1.219,-1.598 2.097,-2.118 0.875,-0.518 1.83,-0.776 2.866,-0.776 0.807,0 1.576,0.168 2.309,0.504 0.735,0.337 1.372,0.809 1.911,1.416 l 0.292,0.329 1.428,-1.265 -0.305,-0.331 c -0.737,-0.799 -1.594,-1.417 -2.57,-1.855 -0.979,-0.44 -2.001,-0.659 -3.065,-0.659 -1.372,0 -2.644,0.347 -3.816,1.041 -1.169,0.692 -2.092,1.623 -2.769,2.792 -0.677,1.17 -1.017,2.448 -1.017,3.834 0,1.385 0.339,2.667 1.017,3.844 0.677,1.177 1.6,2.112 2.769,2.804 1.172,0.694 2.444,1.041 3.816,1.041 z"
   style="fill:#ffffff;fill-rule:nonzero"
   id="path161" />
            <path
   d="m 147.812,29.819 c 1.372,0 2.643,-0.343 3.814,-1.029 1.17,-0.685 2.094,-1.616 2.772,-2.794 0.677,-1.178 1.016,-2.459 1.016,-3.844 0,-1.385 -0.339,-2.667 -1.016,-3.844 -0.678,-1.178 -1.602,-2.109 -2.772,-2.794 -1.171,-0.686 -2.442,-1.029 -3.814,-1.029 -1.372,0 -2.643,0.343 -3.814,1.029 -1.17,0.685 -2.094,1.616 -2.772,2.794 -0.677,1.177 -1.016,2.459 -1.016,3.844 0,1.385 0.339,2.666 1.016,3.844 0.678,1.178 1.602,2.109 2.772,2.794 1.171,0.686 2.442,1.029 3.814,1.029 z m 0,-13.452 c 1.036,0 1.992,0.259 2.866,0.777 0.878,0.52 1.573,1.221 2.086,2.106 0.512,0.883 0.767,1.85 0.767,2.902 0,1.052 -0.255,2.019 -0.767,2.902 -0.513,0.884 -1.208,1.586 -2.086,2.106 -0.874,0.518 -1.83,0.777 -2.866,0.777 -1.036,0 -1.992,-0.259 -2.866,-0.777 -0.879,-0.52 -1.578,-1.223 -2.098,-2.108 -0.519,-0.882 -0.777,-1.849 -0.777,-2.9 0,-1.051 0.258,-2.018 0.777,-2.9 0.52,-0.885 1.219,-1.588 2.098,-2.108 0.874,-0.518 1.83,-0.777 2.866,-0.777 z"
   style="fill:#ffffff;fill-rule:nonzero"
   id="path163" />
            <path
   d="m 160.657,21.646 6.603,8.021 h 2.448 l -5.141,-6.235 c 0.172,-0.013 0.34,-0.028 0.504,-0.048 0.468,-0.055 0.949,-0.193 1.441,-0.415 0.719,-0.304 1.345,-0.802 1.873,-1.498 0.538,-0.709 0.808,-1.513 0.808,-2.41 0,-0.572 -0.126,-1.128 -0.38,-1.667 -0.249,-0.532 -0.606,-1.007 -1.073,-1.425 -0.476,-0.429 -1.032,-0.76 -1.668,-0.99 -0.627,-0.227 -1.301,-0.342 -2.022,-0.342 0,0 -5.382,0 -5.382,0 v 15.03 h 1.861 V 16.498 c 0,0 3.521,0 3.521,0 0.664,0 1.25,0.126 1.758,0.387 0.493,0.253 0.875,0.575 1.141,0.973 0.253,0.38 0.383,0.781 0.383,1.203 0,0.469 -0.153,0.897 -0.453,1.288 -0.313,0.406 -0.68,0.713 -1.104,0.916 -0.632,0.26 -1.444,0.381 -2.443,0.381 0,0 -2.675,0 -2.675,0 z"
   style="fill:#ffffff;fill-rule:nonzero"
   id="path165" />
            <path
   d="m 173.209,29.667 h 10.045 v -1.905 h -8.184 c 0,0 0,-4.669 0,-4.669 0,0 6.377,0 6.377,0 v -1.882 h -6.377 c 0,0 0,-4.691 0,-4.691 0,0 8.184,0 8.184,0 v -1.883 h -10.045 z"
   style="fill:#ffffff;fill-rule:nonzero"
   id="path167" />
        </g>
        <path
   d="m 81.718,300.696 v 3.265 h -1.213 v -8.041 h 1.375 c 0.673,0 1.182,0.046 1.526,0.14 0.347,0.094 0.653,0.271 0.917,0.531 0.461,0.452 0.692,1.021 0.692,1.709 0,0.736 -0.246,1.319 -0.739,1.75 -0.493,0.43 -1.158,0.646 -1.995,0.646 z m 0,-1.125 h 0.453 c 1.115,0 1.672,-0.429 1.672,-1.287 0,-0.83 -0.574,-1.245 -1.724,-1.245 h -0.401 z"
   style="fill:#ffffff;fill-rule:nonzero"
   id="path170" />
        <path
   d="m 88.989,300.534 2.49,3.427 h -1.485 l -2.296,-3.291 h -0.219 v 3.291 h -1.214 v -8.041 h 1.422 c 1.063,0 1.83,0.199 2.302,0.599 0.521,0.444 0.781,1.031 0.781,1.76 0,0.569 -0.163,1.059 -0.489,1.469 -0.327,0.409 -0.757,0.672 -1.292,0.786 z m -1.51,-0.922 h 0.385 c 1.149,0 1.724,-0.439 1.724,-1.317 0,-0.823 -0.559,-1.235 -1.677,-1.235 h -0.432 z"
   style="fill:#ffffff;fill-rule:nonzero"
   id="path172" />
        <path
   d="m 97.125,297.06 h -3.224 v 1.933 h 3.13 v 1.14 h -3.13 v 2.688 h 3.224 v 1.14 h -4.438 v -8.041 h 4.438 z"
   style="fill:#ffffff;fill-rule:nonzero"
   id="path174" />
        <path
   d="m 77.333,354.955 v 3.265 h -1.214 v -8.041 h 1.375 c 0.674,0 1.183,0.046 1.526,0.14 0.348,0.094 0.653,0.271 0.917,0.531 0.462,0.452 0.693,1.021 0.693,1.709 0,0.736 -0.247,1.319 -0.74,1.75 -0.493,0.43 -1.158,0.646 -1.995,0.646 z m 0,-1.125 h 0.453 c 1.115,0 1.672,-0.429 1.672,-1.287 0,-0.83 -0.575,-1.245 -1.724,-1.245 h -0.401 z"
   style="fill:#ffffff;fill-rule:nonzero"
   id="path176" />
        <path
   d="m 81.479,354.163 c 0,-1.132 0.415,-2.104 1.245,-2.917 0.826,-0.812 1.819,-1.218 2.979,-1.218 1.146,0 2.128,0.409 2.948,1.229 0.823,0.819 1.234,1.803 1.234,2.953 0,1.156 -0.413,2.137 -1.24,2.943 -0.829,0.809 -1.831,1.213 -3.005,1.213 -1.038,0 -1.97,-0.359 -2.797,-1.078 -0.909,-0.795 -1.364,-1.837 -1.364,-3.125 z m 1.224,0.016 c 0,0.888 0.298,1.619 0.896,2.192 0.593,0.573 1.279,0.86 2.057,0.86 0.844,0 1.555,-0.292 2.135,-0.875 0.58,-0.591 0.87,-1.309 0.87,-2.157 0,-0.857 -0.286,-1.576 -0.859,-2.156 -0.57,-0.583 -1.275,-0.875 -2.115,-0.875 -0.837,0 -1.543,0.292 -2.12,0.875 -0.576,0.577 -0.864,1.288 -0.864,2.136 z"
   style="fill:#ffffff;fill-rule:nonzero"
   id="path178" />
        <path
   d="m 95.958,351.376 -0.984,0.584 c -0.184,-0.32 -0.36,-0.528 -0.526,-0.625 -0.174,-0.111 -0.398,-0.167 -0.672,-0.167 -0.337,0 -0.617,0.096 -0.839,0.287 -0.222,0.187 -0.333,0.423 -0.333,0.708 0,0.392 0.291,0.708 0.875,0.948 l 0.802,0.328 c 0.653,0.264 1.13,0.586 1.432,0.966 0.302,0.38 0.453,0.846 0.453,1.399 0,0.739 -0.246,1.35 -0.739,1.833 -0.497,0.486 -1.113,0.729 -1.849,0.729 -0.698,0 -1.275,-0.207 -1.729,-0.62 -0.448,-0.413 -0.728,-0.995 -0.839,-1.745 l 1.229,-0.27 c 0.056,0.472 0.153,0.798 0.292,0.979 0.25,0.347 0.614,0.521 1.094,0.521 0.378,0 0.692,-0.127 0.942,-0.381 0.25,-0.253 0.375,-0.574 0.375,-0.963 0,-0.156 -0.021,-0.3 -0.065,-0.43 -0.043,-0.13 -0.111,-0.25 -0.203,-0.359 -0.092,-0.11 -0.211,-0.212 -0.357,-0.307 -0.146,-0.096 -0.319,-0.187 -0.521,-0.274 l -0.776,-0.323 c -1.1,-0.465 -1.651,-1.146 -1.651,-2.041 0,-0.605 0.231,-1.11 0.693,-1.516 0.462,-0.41 1.037,-0.615 1.724,-0.615 0.927,0 1.651,0.452 2.172,1.354 z"
   style="fill:#ffffff;fill-rule:nonzero"
   id="path180" />
        <path
   d="m 100,351.319 v 6.901 h -1.214 v -6.901 h -1.849 v -1.14 h 4.906 v 1.14 z"
   style="fill:#ffffff;fill-rule:nonzero"
   id="path182" />
        <path
   d="m 36.609,124.377 v 6.901 h -1.213 v -6.901 h -1.849 v -1.14 h 4.906 v 1.14 z"
   style="fill:#ffffff;fill-rule:nonzero"
   id="path184" />
        <path
   d="m 40.75,123.237 v 4.843 c 0,0.691 0.113,1.197 0.339,1.516 0.336,0.462 0.81,0.693 1.421,0.693 0.615,0 1.091,-0.231 1.428,-0.693 0.225,-0.309 0.338,-0.814 0.338,-1.516 v -4.843 h 1.214 v 5.177 c 0,0.847 -0.264,1.545 -0.792,2.094 -0.594,0.611 -1.323,0.916 -2.188,0.916 -0.864,0 -1.592,-0.305 -2.182,-0.916 -0.528,-0.549 -0.792,-1.247 -0.792,-2.094 v -5.177 z"
   style="fill:#ffffff;fill-rule:nonzero"
   id="path186" />
        <path
   d="m 47.417,131.278 v -8.588 l 5.864,6.135 v -5.588 h 1.214 v 8.531 l -5.865,-6.12 v 5.63 z"
   style="fill:#ffffff;fill-rule:nonzero"
   id="path188" />
        <path
   d="m 60.859,124.377 h -3.224 v 1.933 h 3.131 v 1.14 h -3.131 v 2.688 h 3.224 v 1.14 h -4.437 v -8.041 h 4.437 z"
   style="fill:#ffffff;fill-rule:nonzero"
   id="path190" />
        <path
   d="m 27.644,238.401 2.093,5.375 2.188,-5.765 2.094,5.765 2.224,-5.375 h 1.317 l -3.593,8.552 -2.068,-5.698 -2.156,5.703 -3.417,-8.557 z"
   style="fill:#ffffff;fill-rule:nonzero"
   id="path192" />
        <path
   d="m 42.602,244.49 h -3.443 l -0.896,1.953 h -1.307 l 3.979,-8.547 3.839,8.547 h -1.328 z m -0.495,-1.141 -1.193,-2.734 -1.25,2.734 z"
   style="fill:#ffffff;fill-rule:nonzero"
   id="path194" />
        <path
   d="m 48.503,243.016 2.49,3.427 h -1.485 l -2.297,-3.292 h -0.218 v 3.292 h -1.214 v -8.042 h 1.422 c 1.062,0 1.83,0.2 2.302,0.599 0.521,0.445 0.781,1.031 0.781,1.761 0,0.569 -0.163,1.059 -0.489,1.468 -0.327,0.41 -0.757,0.672 -1.292,0.787 z m -1.51,-0.922 h 0.385 c 1.149,0 1.724,-0.439 1.724,-1.318 0,-0.823 -0.559,-1.234 -1.677,-1.234 h -0.432 z"
   style="fill:#ffffff;fill-rule:nonzero"
   id="path196" />
        <path
   d="m 53.414,243.177 v 3.266 h -1.213 v -8.042 h 1.375 c 0.674,0 1.182,0.047 1.526,0.141 0.347,0.094 0.653,0.271 0.917,0.531 0.461,0.451 0.692,1.021 0.692,1.708 0,0.736 -0.246,1.32 -0.739,1.75 -0.493,0.431 -1.158,0.646 -1.995,0.646 z m 0,-1.125 h 0.454 c 1.114,0 1.671,-0.429 1.671,-1.286 0,-0.83 -0.574,-1.245 -1.724,-1.245 h -0.401 z"
   style="fill:#ffffff;fill-rule:nonzero"
   id="path198" />
        <path
   d="m 65.977,244.49 h -3.443 l -0.896,1.953 h -1.307 l 3.979,-8.547 3.839,8.547 h -1.328 z m -0.495,-1.141 -1.193,-2.734 -1.25,2.734 z"
   style="fill:#ffffff;fill-rule:nonzero"
   id="path200" />
        <g
   id="g212">
            <path
   d="m 136.381,358.366 5.215,-7.119 5.215,6.985"
   style="fill:none;stroke:#ffffff;stroke-width:2px;stroke-linecap:round;stroke-miterlimit:1.5"
   id="path202" />
            <path
   d="m 163.583,331.385 v -7.54 l 10.464,7.405"
   style="fill:none;stroke:#ffffff;stroke-width:2px;stroke-linecap:round;stroke-miterlimit:1.5"
   id="path204" />
            <path
   d="m 131.927,299.789 c 0,-1.132 0.415,-2.104 1.245,-2.916 0.827,-0.813 1.82,-1.219 2.979,-1.219 1.146,0 2.129,0.41 2.948,1.229 0.823,0.82 1.235,1.804 1.235,2.953 0,1.157 -0.413,2.137 -1.24,2.943 -0.83,0.809 -1.831,1.214 -3.005,1.214 -1.038,0 -1.971,-0.36 -2.797,-1.079 -0.91,-0.795 -1.365,-1.836 -1.365,-3.125 z m 1.224,0.016 c 0,0.889 0.299,1.62 0.896,2.193 0.594,0.573 1.28,0.859 2.058,0.859 0.843,0 1.555,-0.292 2.135,-0.875 0.58,-0.59 0.87,-1.309 0.87,-2.156 0,-0.858 -0.287,-1.577 -0.86,-2.156 -0.569,-0.584 -1.274,-0.875 -2.114,-0.875 -0.837,0 -1.544,0.291 -2.12,0.875 -0.576,0.576 -0.865,1.288 -0.865,2.135 z"
   style="fill:#ffffff;fill-rule:nonzero"
   id="path206" />
            <path
   d="m 145.875,296.946 h -2.802 v 1.932 h 2.703 v 1.141 h -2.703 v 3.828 h -1.213 v -8.042 h 4.015 z"
   style="fill:#ffffff;fill-rule:nonzero"
   id="path208" />
            <path
   d="m 151.297,296.946 h -2.802 v 1.932 h 2.703 v 1.141 h -2.703 v 3.828 h -1.213 v -8.042 h 4.015 z"
   style="fill:#ffffff;fill-rule:nonzero"
   id="path210" />
        </g>
        <rect
   x="165.716"
   y="123.439"
   width="1.214"
   height="8.0419998"
   style="fill:#ffffff;fill-rule:nonzero"
   id="rect214" />
        <path
   d="m 168.862,131.481 v -8.588 l 5.864,6.135 v -5.589 h 1.214 v 8.532 l -5.865,-6.12 v 5.63 z"
   style="fill:#ffffff;fill-rule:nonzero"
   id="path216" />
        <path
   d="m 180.086,124.58 v 6.901 h -1.214 v -6.901 h -1.849 v -1.141 h 4.907 v 1.141 z"
   style="fill:#ffffff;fill-rule:nonzero"
   id="path218" />
        <path
   d="m 187.518,128.215 v 3.266 h -1.213 v -8.042 h 1.375 c 0.673,0 1.182,0.047 1.526,0.141 0.347,0.094 0.652,0.271 0.916,0.531 0.462,0.452 0.693,1.021 0.693,1.709 0,0.736 -0.247,1.319 -0.74,1.75 -0.493,0.43 -1.158,0.645 -1.994,0.645 z m 0,-1.125 h 0.453 c 1.115,0 1.672,-0.428 1.672,-1.286 0,-0.83 -0.575,-1.245 -1.724,-1.245 h -0.401 z"
   style="fill:#ffffff;fill-rule:nonzero"
   id="path220" />
        <path
   d="m 191.784,131.481 1.692,-8.646 2.761,6.25 2.859,-6.25 1.521,8.646 h -1.245 l -0.776,-4.854 -2.38,5.224 -2.312,-5.229 -0.865,4.859 z"
   style="fill:#ffffff;fill-rule:nonzero"
   id="path222" />
        <rect
   x="22.056"
   y="297.681"
   width="7.1329999"
   height="2.013"
   style="fill:#ffffff;fill-rule:nonzero"
   id="rect224" />
        <path
   d="m 35.466,297.835 h 2.72 v -2.72 h 1.707 v 2.72 H 42.6 v 1.706 h -2.707 v 2.72 h -1.707 v -2.72 h -2.72 z"
   style="fill:#ffffff;fill-rule:nonzero"
   id="path226" />
        <rect
   x="188.21001"
   y="297.681"
   width="7.1329999"
   height="2.013"
   style="fill:#ffffff;fill-rule:nonzero"
   id="rect228" />
        <path
   d="m 201.64,297.835 h 2.72 v -2.72 h 1.707 v 2.72 h 2.707 v 1.706 h -2.707 v 2.72 h -1.707 v -2.72 h -2.72 z"
   style="fill:#ffffff;fill-rule:nonzero"
   id="path230" />
        <path
   d="m 164.192,238.401 2.094,5.375 2.188,-5.765 2.093,5.765 2.224,-5.375 h 1.318 l -3.594,8.552 -2.067,-5.698 -2.157,5.703 -3.416,-8.557 z"
   style="fill:#ffffff;fill-rule:nonzero"
   id="path232" />
        <path
   d="m 179.151,244.49 h -3.443 l -0.896,1.953 h -1.307 l 3.979,-8.547 3.839,8.547 h -1.329 z m -0.495,-1.141 -1.193,-2.734 -1.25,2.734 z"
   style="fill:#ffffff;fill-rule:nonzero"
   id="path234" />
        <path
   d="m 185.052,243.016 2.489,3.427 h -1.484 l -2.297,-3.292 h -0.219 v 3.292 h -1.213 v -8.042 h 1.422 c 1.062,0 1.829,0.2 2.302,0.599 0.521,0.445 0.781,1.031 0.781,1.761 0,0.569 -0.163,1.059 -0.49,1.468 -0.326,0.41 -0.757,0.672 -1.291,0.787 z m -1.511,-0.922 h 0.386 c 1.149,0 1.724,-0.439 1.724,-1.318 0,-0.823 -0.559,-1.234 -1.677,-1.234 h -0.433 z"
   style="fill:#ffffff;fill-rule:nonzero"
   id="path236" />
        <path
   d="m 189.963,243.177 v 3.266 h -1.213 v -8.042 h 1.375 c 0.673,0 1.182,0.047 1.526,0.141 0.347,0.094 0.652,0.271 0.916,0.531 0.462,0.451 0.693,1.021 0.693,1.708 0,0.736 -0.246,1.32 -0.74,1.75 -0.493,0.431 -1.158,0.646 -1.994,0.646 z m 0,-1.125 h 0.453 c 1.115,0 1.672,-0.429 1.672,-1.286 0,-0.83 -0.574,-1.245 -1.724,-1.245 h -0.401 z"
   style="fill:#ffffff;fill-rule:nonzero"
   id="path238" />
        <path
   d="m 197.802,246.443 v -8.042 h 1.208 c 0.538,0 0.967,0.042 1.286,0.125 0.323,0.084 0.596,0.224 0.818,0.422 0.226,0.205 0.405,0.46 0.537,0.766 0.135,0.309 0.203,0.621 0.203,0.937 0,0.577 -0.221,1.064 -0.662,1.464 0.427,0.146 0.764,0.401 1.011,0.765 0.25,0.361 0.375,0.782 0.375,1.261 0,0.628 -0.222,1.159 -0.667,1.594 -0.267,0.267 -0.568,0.453 -0.901,0.557 -0.365,0.1 -0.821,0.151 -1.37,0.151 z m 1.213,-4.589 h 0.38 c 0.452,0 0.783,-0.1 0.993,-0.299 0.21,-0.2 0.315,-0.494 0.315,-0.883 0,-0.378 -0.108,-0.666 -0.323,-0.862 -0.215,-0.196 -0.528,-0.294 -0.938,-0.294 h -0.427 z m 0,3.448 h 0.75 c 0.549,0 0.952,-0.107 1.209,-0.323 0.27,-0.232 0.406,-0.527 0.406,-0.885 0,-0.347 -0.13,-0.639 -0.391,-0.875 -0.253,-0.233 -0.706,-0.349 -1.359,-0.349 h -0.615 z"
   style="fill:#ffffff;fill-rule:nonzero"
   id="path240" />
        <g
   id="g250">
            <rect
   x="139.709"
   y="399.78799"
   width="34.015999"
   height="45.354"
   style="fill:#ffffff"
   id="rect242" />
            <g
   id="g248">
                <path
   d="m 155.147,438.742 c 0,0.356 0.032,0.679 0.096,0.971 0.064,0.291 0.154,0.544 0.272,0.757 0.117,0.213 0.257,0.379 0.421,0.496 0.163,0.117 0.348,0.176 0.555,0.176 0.199,0 0.382,-0.059 0.549,-0.176 0.167,-0.117 0.307,-0.283 0.421,-0.496 0.114,-0.213 0.203,-0.466 0.267,-0.757 0.064,-0.292 0.096,-0.615 0.096,-0.971 0,-0.348 -0.032,-0.67 -0.096,-0.965 -0.064,-0.295 -0.153,-0.548 -0.267,-0.758 -0.114,-0.209 -0.254,-0.373 -0.421,-0.49 -0.167,-0.118 -0.35,-0.176 -0.549,-0.176 -0.207,0 -0.392,0.058 -0.555,0.176 -0.164,0.117 -0.304,0.281 -0.421,0.49 -0.118,0.21 -0.208,0.463 -0.272,0.758 -0.064,0.295 -0.096,0.617 -0.096,0.965 z m -2.07,0 c 0,-0.64 0.084,-1.221 0.251,-1.744 0.167,-0.523 0.402,-0.969 0.704,-1.339 0.302,-0.369 0.661,-0.656 1.077,-0.858 0.416,-0.203 0.877,-0.304 1.382,-0.304 0.497,0 0.956,0.101 1.376,0.304 0.419,0.202 0.778,0.489 1.077,0.858 0.299,0.37 0.531,0.816 0.699,1.339 0.167,0.523 0.25,1.104 0.25,1.744 0,0.64 -0.083,1.221 -0.25,1.744 -0.168,0.523 -0.4,0.971 -0.699,1.344 -0.299,0.373 -0.658,0.661 -1.077,0.864 -0.42,0.203 -0.879,0.304 -1.376,0.304 -0.505,0 -0.966,-0.101 -1.382,-0.304 -0.416,-0.203 -0.775,-0.491 -1.077,-0.864 -0.302,-0.373 -0.537,-0.821 -0.704,-1.344 -0.167,-0.523 -0.251,-1.104 -0.251,-1.744 z"
   style="fill-rule:nonzero"
   id="path244" />
                <path
   d="m 162.965,436.203 c 0,0.221 0.075,0.406 0.224,0.555 0.15,0.149 0.331,0.224 0.544,0.224 0.206,0 0.386,-0.073 0.539,-0.219 0.153,-0.145 0.229,-0.329 0.229,-0.549 0,-0.213 -0.076,-0.395 -0.229,-0.544 -0.153,-0.149 -0.333,-0.224 -0.539,-0.224 -0.213,0 -0.394,0.075 -0.544,0.224 -0.149,0.149 -0.224,0.327 -0.224,0.533 z m -0.842,0 c 0,-0.213 0.042,-0.417 0.128,-0.613 0.085,-0.196 0.202,-0.364 0.352,-0.507 0.149,-0.142 0.321,-0.256 0.517,-0.341 0.195,-0.085 0.4,-0.128 0.613,-0.128 0.221,0 0.43,0.043 0.63,0.128 0.199,0.085 0.369,0.201 0.512,0.347 0.142,0.145 0.256,0.316 0.341,0.512 0.085,0.195 0.128,0.4 0.128,0.613 0,0.22 -0.041,0.428 -0.123,0.624 -0.082,0.196 -0.195,0.366 -0.341,0.512 -0.146,0.146 -0.317,0.261 -0.512,0.347 -0.196,0.085 -0.407,0.128 -0.635,0.128 -0.227,0 -0.439,-0.043 -0.634,-0.128 -0.196,-0.086 -0.365,-0.201 -0.507,-0.347 -0.142,-0.146 -0.256,-0.316 -0.341,-0.512 -0.086,-0.196 -0.128,-0.407 -0.128,-0.635 z"
   style="fill-rule:nonzero"
   id="path246" />
            </g>
        </g>
        <g
   id="g264">
            <rect
   x="14.945"
   y="399.78799"
   width="34.015999"
   height="45.354"
   style="fill:none"
   id="rect252" />
            <path
   d="m 15.834,434.305 2.224,5.573 2.255,-5.573 h 1.328 l -3.609,8.646 -3.527,-8.646 z"
   style="fill:#ffffff;fill-rule:nonzero"
   id="path254" />
            <path
   d="m 26.198,433.461 0.969,0.427 -4.604,10.656 -0.959,-0.432 z"
   style="fill:#ffffff;fill-rule:nonzero"
   id="path256" />
            <path
   d="m 27.766,438.289 c 0,-1.132 0.415,-2.104 1.245,-2.916 0.826,-0.813 1.819,-1.219 2.979,-1.219 1.146,0 2.128,0.409 2.948,1.229 0.823,0.819 1.234,1.804 1.234,2.953 0,1.156 -0.413,2.137 -1.239,2.943 -0.83,0.809 -1.832,1.213 -3.006,1.213 -1.038,0 -1.97,-0.359 -2.797,-1.078 -0.909,-0.795 -1.364,-1.837 -1.364,-3.125 z m 1.224,0.016 c 0,0.889 0.298,1.62 0.896,2.193 0.593,0.572 1.279,0.859 2.057,0.859 0.844,0 1.556,-0.292 2.135,-0.875 0.58,-0.59 0.87,-1.309 0.87,-2.156 0,-0.858 -0.286,-1.577 -0.859,-2.157 -0.57,-0.583 -1.275,-0.875 -2.115,-0.875 -0.837,0 -1.543,0.292 -2.12,0.875 -0.576,0.577 -0.864,1.289 -0.864,2.136 z"
   style="fill:#ffffff;fill-rule:nonzero"
   id="path258" />
            <path
   d="m 43.641,434.737 v 1.438 c -0.702,-0.587 -1.427,-0.881 -2.177,-0.881 -0.827,0 -1.523,0.297 -2.089,0.891 -0.569,0.59 -0.854,1.313 -0.854,2.167 0,0.843 0.285,1.555 0.854,2.135 0.57,0.58 1.268,0.87 2.094,0.87 0.427,0 0.79,-0.07 1.089,-0.208 0.166,-0.07 0.339,-0.164 0.518,-0.282 0.179,-0.118 0.367,-0.26 0.565,-0.427 v 1.464 c -0.695,0.392 -1.424,0.588 -2.188,0.588 -1.149,0 -2.13,-0.401 -2.942,-1.203 -0.809,-0.809 -1.214,-1.785 -1.214,-2.927 0,-1.024 0.339,-1.937 1.016,-2.739 0.833,-0.983 1.911,-1.474 3.234,-1.474 0.722,0 1.42,0.196 2.094,0.588 z"
   style="fill:#ffffff;fill-rule:nonzero"
   id="path260" />
            <path
   d="m 47.391,435.445 v 6.901 h -1.214 v -6.901 h -1.849 v -1.14 h 4.907 v 1.14 z"
   style="fill:#ffffff;fill-rule:nonzero"
   id="path262" />
        </g>
        <g
   id="g276">
            <rect
   x="56.533001"
   y="399.78799"
   width="34.015999"
   height="45.354"
   style="fill:none"
   id="rect266" />
            <path
   d="m 58.677,439.663 v 3.265 h -1.214 v -8.041 h 1.375 c 0.674,0 1.183,0.047 1.526,0.14 0.348,0.094 0.653,0.271 0.917,0.532 0.462,0.451 0.693,1.021 0.693,1.708 0,0.736 -0.247,1.319 -0.74,1.75 -0.493,0.431 -1.158,0.646 -1.995,0.646 z m 0,-1.125 h 0.453 c 1.115,0 1.672,-0.429 1.672,-1.287 0,-0.829 -0.575,-1.244 -1.724,-1.244 h -0.401 z"
   style="fill:#ffffff;fill-rule:nonzero"
   id="path268" />
            <path
   d="m 62.943,442.928 1.692,-8.645 2.761,6.25 2.859,-6.25 1.521,8.645 h -1.245 l -0.776,-4.854 -2.38,5.224 -2.313,-5.229 -0.864,4.859 z"
   style="fill:#ffffff;fill-rule:nonzero"
   id="path270" />
            <path
   d="m 82.713,435.319 v 1.438 c -0.701,-0.587 -1.427,-0.881 -2.177,-0.881 -0.826,0 -1.522,0.297 -2.088,0.891 -0.57,0.59 -0.854,1.313 -0.854,2.167 0,0.843 0.284,1.555 0.854,2.135 0.569,0.58 1.267,0.87 2.094,0.87 0.427,0 0.789,-0.07 1.088,-0.208 0.167,-0.07 0.339,-0.164 0.518,-0.282 0.179,-0.118 0.367,-0.26 0.565,-0.427 v 1.464 c -0.694,0.392 -1.423,0.588 -2.187,0.588 -1.149,0 -2.13,-0.401 -2.943,-1.203 -0.809,-0.809 -1.213,-1.785 -1.213,-2.927 0,-1.024 0.338,-1.937 1.015,-2.739 0.834,-0.983 1.912,-1.474 3.235,-1.474 0.722,0 1.42,0.196 2.093,0.588 z"
   style="fill:#ffffff;fill-rule:nonzero"
   id="path272" />
            <path
   d="m 84.651,434.887 2.224,5.573 2.255,-5.573 h 1.328 l -3.609,8.646 -3.526,-8.646 z"
   style="fill:#ffffff;fill-rule:nonzero"
   id="path274" />
        </g>
        <g
   id="g286">
            <rect
   x="14.945"
   y="342.91501"
   width="34.015999"
   height="45.354"
   style="fill:none"
   id="rect278" />
            <path
   d="m 24.668,384.425 h -3.443 l -0.895,1.954 h -1.308 l 3.979,-8.547 3.839,8.547 h -1.328 z m -0.495,-1.14 -1.192,-2.735 -1.25,2.735 z"
   style="fill:#ffffff;fill-rule:nonzero"
   id="path280" />
            <path
   d="m 37.08,378.769 v 1.438 c -0.702,-0.587 -1.427,-0.881 -2.177,-0.881 -0.827,0 -1.523,0.297 -2.089,0.891 -0.569,0.59 -0.854,1.313 -0.854,2.167 0,0.844 0.285,1.555 0.854,2.135 0.569,0.58 1.267,0.87 2.094,0.87 0.427,0 0.79,-0.069 1.088,-0.208 0.167,-0.07 0.34,-0.164 0.518,-0.282 0.179,-0.118 0.368,-0.26 0.566,-0.427 v 1.464 c -0.695,0.392 -1.424,0.588 -2.188,0.588 -1.149,0 -2.13,-0.401 -2.943,-1.203 -0.809,-0.809 -1.213,-1.784 -1.213,-2.927 0,-1.024 0.338,-1.937 1.015,-2.739 0.834,-0.983 1.912,-1.474 3.235,-1.474 0.722,0 1.42,0.196 2.094,0.588 z"
   style="fill:#ffffff;fill-rule:nonzero"
   id="path282" />
            <path
   d="m 39.017,378.337 2.224,5.573 2.255,-5.573 h 1.328 l -3.609,8.646 -3.526,-8.646 z"
   style="fill:#ffffff;fill-rule:nonzero"
   id="path284" />
        </g>
        <g
   id="g296">
            <rect
   x="181.453"
   y="343.91501"
   width="34.015999"
   height="45.354"
   style="fill:none"
   id="rect288" />
            <path
   d="m 187.778,386.448 v -8.042 h 1.208 c 0.539,0 0.968,0.042 1.287,0.125 0.323,0.083 0.595,0.224 0.818,0.422 0.225,0.205 0.404,0.46 0.536,0.766 0.136,0.309 0.203,0.621 0.203,0.937 0,0.576 -0.22,1.064 -0.661,1.464 0.427,0.145 0.764,0.401 1.01,0.765 0.25,0.361 0.375,0.781 0.375,1.261 0,0.628 -0.222,1.159 -0.666,1.593 -0.268,0.268 -0.568,0.454 -0.902,0.558 -0.364,0.1 -0.821,0.151 -1.369,0.151 z m 1.214,-4.589 h 0.38 c 0.451,0 0.782,-0.1 0.992,-0.299 0.21,-0.2 0.315,-0.494 0.315,-0.883 0,-0.379 -0.107,-0.666 -0.323,-0.862 -0.215,-0.196 -0.527,-0.294 -0.937,-0.294 h -0.427 z m 0,3.448 h 0.75 c 0.548,0 0.951,-0.108 1.208,-0.323 0.271,-0.232 0.406,-0.528 0.406,-0.885 0,-0.347 -0.13,-0.639 -0.39,-0.875 -0.254,-0.233 -0.707,-0.349 -1.36,-0.349 h -0.614 z"
   style="fill:#ffffff;fill-rule:nonzero"
   id="path290" />
            <path
   d="m 203.32,378.838 v 1.438 c -0.702,-0.587 -1.427,-0.88 -2.177,-0.88 -0.827,0 -1.523,0.297 -2.089,0.89 -0.569,0.591 -0.854,1.313 -0.854,2.167 0,0.844 0.285,1.556 0.854,2.135 0.57,0.58 1.268,0.87 2.094,0.87 0.427,0 0.79,-0.069 1.088,-0.208 0.167,-0.07 0.34,-0.163 0.519,-0.281 0.179,-0.118 0.367,-0.261 0.565,-0.428 v 1.464 c -0.695,0.392 -1.424,0.589 -2.188,0.589 -1.149,0 -2.13,-0.401 -2.942,-1.204 -0.809,-0.809 -1.214,-1.784 -1.214,-2.927 0,-1.024 0.339,-1.937 1.016,-2.739 0.833,-0.983 1.911,-1.474 3.234,-1.474 0.722,0 1.42,0.196 2.094,0.588 z"
   style="fill:#ffffff;fill-rule:nonzero"
   id="path292" />
            <path
   d="m 205.257,378.406 2.224,5.573 2.255,-5.573 h 1.329 l -3.61,8.646 -3.526,-8.646 z"
   style="fill:#ffffff;fill-rule:nonzero"
   id="path294" />
        </g>
        <g
   id="g310">
            <rect
   x="98.121002"
   y="399.78799"
   width="34.015999"
   height="45.354"
   style="fill:none"
   id="rect298" />
            <path
   d="m 101.95,436.027 h -3.224 v 1.933 h 3.13 v 1.14 h -3.13 v 2.688 h 3.224 v 1.14 h -4.438 v -8.041 h 4.438 z"
   style="fill:#ffffff;fill-rule:nonzero"
   id="path300" />
            <path
   d="m 105.226,438.725 -2.214,-3.838 h 1.381 l 1.536,2.724 1.615,-2.724 h 1.39 l -2.317,3.838 2.432,4.203 h -1.359 l -1.782,-3.078 -1.833,3.078 H 102.7 Z"
   style="fill:#ffffff;fill-rule:nonzero"
   id="path302" />
            <path
   d="m 112.351,436.027 v 6.901 h -1.214 v -6.901 h -1.848 v -1.14 h 4.906 v 1.14 z"
   style="fill:#ffffff;fill-rule:nonzero"
   id="path304" />
            <path
   d="m 119.783,439.663 v 3.265 h -1.213 v -8.041 h 1.375 c 0.673,0 1.182,0.047 1.526,0.14 0.347,0.094 0.653,0.271 0.916,0.532 0.462,0.451 0.693,1.021 0.693,1.708 0,0.736 -0.246,1.319 -0.739,1.75 -0.493,0.431 -1.158,0.646 -1.995,0.646 z m 0,-1.125 h 0.453 c 1.115,0 1.672,-0.429 1.672,-1.287 0,-0.829 -0.574,-1.244 -1.724,-1.244 h -0.401 z"
   style="fill:#ffffff;fill-rule:nonzero"
   id="path306" />
            <path
   d="m 124.049,442.928 1.693,-8.645 2.76,6.25 2.859,-6.25 1.521,8.645 h -1.245 l -0.776,-4.854 -2.38,5.224 -2.312,-5.229 -0.865,4.859 z"
   style="fill:#ffffff;fill-rule:nonzero"
   id="path308" />
        </g>
        <g
   id="g320">
            <rect
   x="181.297"
   y="399.78799"
   width="34.015999"
   height="45.354"
   style="fill:#ffffff"
   id="rect312" />
            <path
   d="m 192.35,442.774 2.283,-2.624 h -0.043 c -0.199,0.121 -0.362,0.194 -0.49,0.219 -0.128,0.025 -0.242,0.037 -0.342,0.037 -0.391,0 -0.752,-0.075 -1.082,-0.224 -0.331,-0.149 -0.615,-0.354 -0.854,-0.613 -0.238,-0.26 -0.424,-0.564 -0.56,-0.912 -0.135,-0.349 -0.202,-0.722 -0.202,-1.12 0,-0.427 0.078,-0.823 0.234,-1.19 0.157,-0.366 0.383,-0.686 0.678,-0.96 0.295,-0.273 0.652,-0.489 1.072,-0.645 0.419,-0.156 0.892,-0.235 1.418,-0.235 0.534,0 1.01,0.079 1.43,0.235 0.419,0.156 0.777,0.37 1.072,0.64 0.295,0.27 0.521,0.585 0.677,0.944 0.157,0.359 0.235,0.741 0.235,1.147 0,0.455 -0.102,0.947 -0.304,1.477 -0.203,0.53 -0.514,1.051 -0.934,1.563 l -1.866,2.261 z m 3.456,-5.28 c 0,-0.185 -0.035,-0.357 -0.106,-0.517 -0.071,-0.16 -0.167,-0.301 -0.288,-0.422 -0.121,-0.121 -0.262,-0.217 -0.422,-0.288 -0.16,-0.071 -0.332,-0.106 -0.517,-0.106 -0.185,0 -0.357,0.035 -0.517,0.106 -0.16,0.071 -0.301,0.167 -0.422,0.288 -0.12,0.121 -0.216,0.262 -0.288,0.422 -0.071,0.16 -0.106,0.332 -0.106,0.517 0,0.185 0.035,0.357 0.106,0.517 0.072,0.16 0.168,0.301 0.288,0.422 0.121,0.121 0.262,0.217 0.422,0.288 0.16,0.071 0.332,0.106 0.517,0.106 0.185,0 0.357,-0.035 0.517,-0.106 0.16,-0.071 0.301,-0.167 0.422,-0.288 0.121,-0.121 0.217,-0.262 0.288,-0.422 0.071,-0.16 0.106,-0.332 0.106,-0.517 z"
   style="fill-rule:nonzero"
   id="path314" />
            <path
   d="m 200.382,438.742 c 0,0.356 0.032,0.679 0.096,0.971 0.064,0.291 0.155,0.544 0.272,0.757 0.118,0.213 0.258,0.379 0.422,0.496 0.163,0.117 0.348,0.176 0.554,0.176 0.2,0 0.383,-0.059 0.55,-0.176 0.167,-0.117 0.307,-0.283 0.421,-0.496 0.114,-0.213 0.203,-0.466 0.267,-0.757 0.064,-0.292 0.096,-0.615 0.096,-0.971 0,-0.348 -0.032,-0.67 -0.096,-0.965 -0.064,-0.295 -0.153,-0.548 -0.267,-0.758 -0.114,-0.209 -0.254,-0.373 -0.421,-0.49 -0.167,-0.118 -0.35,-0.176 -0.55,-0.176 -0.206,0 -0.391,0.058 -0.554,0.176 -0.164,0.117 -0.304,0.281 -0.422,0.49 -0.117,0.21 -0.208,0.463 -0.272,0.758 -0.064,0.295 -0.096,0.617 -0.096,0.965 z m -2.069,0 c 0,-0.64 0.084,-1.221 0.251,-1.744 0.167,-0.523 0.402,-0.969 0.704,-1.339 0.302,-0.369 0.661,-0.656 1.077,-0.858 0.416,-0.203 0.877,-0.304 1.381,-0.304 0.498,0 0.957,0.101 1.376,0.304 0.42,0.202 0.779,0.489 1.078,0.858 0.298,0.37 0.531,0.816 0.698,1.339 0.168,0.523 0.251,1.104 0.251,1.744 0,0.64 -0.083,1.221 -0.251,1.744 -0.167,0.523 -0.4,0.971 -0.698,1.344 -0.299,0.373 -0.658,0.661 -1.078,0.864 -0.419,0.203 -0.878,0.304 -1.376,0.304 -0.504,0 -0.965,-0.101 -1.381,-0.304 -0.416,-0.203 -0.775,-0.491 -1.077,-0.864 -0.302,-0.373 -0.537,-0.821 -0.704,-1.344 -0.167,-0.523 -0.251,-1.104 -0.251,-1.744 z"
   style="fill-rule:nonzero"
   id="path316" />
            <path
   d="m 208.201,436.203 c 0,0.221 0.075,0.406 0.224,0.555 0.149,0.149 0.331,0.224 0.544,0.224 0.206,0 0.386,-0.073 0.539,-0.219 0.153,-0.145 0.229,-0.329 0.229,-0.549 0,-0.213 -0.076,-0.395 -0.229,-0.544 -0.153,-0.149 -0.333,-0.224 -0.539,-0.224 -0.213,0 -0.395,0.075 -0.544,0.224 -0.149,0.149 -0.224,0.327 -0.224,0.533 z m -0.843,0 c 0,-0.213 0.043,-0.417 0.128,-0.613 0.086,-0.196 0.203,-0.364 0.352,-0.507 0.15,-0.142 0.322,-0.256 0.518,-0.341 0.195,-0.085 0.4,-0.128 0.613,-0.128 0.221,0 0.43,0.043 0.629,0.128 0.2,0.085 0.37,0.201 0.512,0.347 0.143,0.145 0.256,0.316 0.342,0.512 0.085,0.195 0.128,0.4 0.128,0.613 0,0.22 -0.041,0.428 -0.123,0.624 -0.082,0.196 -0.195,0.366 -0.341,0.512 -0.146,0.146 -0.317,0.261 -0.512,0.347 -0.196,0.085 -0.407,0.128 -0.635,0.128 -0.227,0 -0.439,-0.043 -0.635,-0.128 -0.195,-0.086 -0.364,-0.201 -0.506,-0.347 -0.142,-0.146 -0.256,-0.316 -0.342,-0.512 -0.085,-0.196 -0.128,-0.407 -0.128,-0.635 z"
   style="fill-rule:nonzero"
   id="path318" />
        </g>
        <g
   id="g346">
            <g
   id="g326">
                <circle
   cx="95.063004"
   cy="178.89101"
   r="5.5890002"
   style="fill:#ffffff"
   id="circle322" />
                <path
   d="m 92.23,181.724 c 4.594,0 5.666,-1.52 5.666,-5.666"
   style="fill:none;stroke:#000000;stroke-width:1.6px;stroke-linecap:round;stroke-miterlimit:1.5"
   id="path324" />
            </g>
            <g
   id="g332">
                <circle
   cx="95.063004"
   cy="198.44701"
   r="5.5890002"
   style="fill:#ffffff"
   id="circle328" />
                <path
   d="m 92.23,201.263 3.816,-5.631 v 5.631 l 1.85,-2.382"
   style="fill:none;stroke:#000000;stroke-width:1.6px;stroke-linecap:round;stroke-miterlimit:1.5"
   id="path330" />
            </g>
            <g
   id="g338">
                <circle
   cx="95.063004"
   cy="217.40401"
   r="5.5890002"
   style="fill:#ffffff"
   id="circle334" />
                <path
   d="m 92.229,220.238 h 1.964 l 1.719,-5.669 h 1.986"
   style="fill:none;stroke:#000000;stroke-width:1.6px;stroke-linecap:round;stroke-miterlimit:1.5"
   id="path336" />
            </g>
            <g
   id="g344">
                <circle
   cx="95.063004"
   cy="236.394"
   r="5.5890002"
   style="fill:#ffffff"
   id="circle340" />
                <path
   d="m 92.229,239.21 3.815,-5.632 1.849,2.435"
   style="fill:none;stroke:#000000;stroke-width:1.6px;stroke-linecap:round;stroke-miterlimit:1.5"
   id="path342" />
            </g>
        </g>
        <g
   id="g372">
            <g
   id="g352">
                <circle
   cx="135.33701"
   cy="178.89101"
   r="5.5890002"
   style="fill:#ffffff"
   id="circle348" />
                <path
   d="m 134.935,176.922 h -1.026 v -1.55 h 2.856 v 7.038 h -1.83 z"
   style="fill-rule:nonzero"
   id="path350" />
            </g>
            <g
   id="g358">
                <circle
   cx="135.33701"
   cy="198.44701"
   r="5.5890002"
   style="fill:#ffffff"
   id="circle354" />
                <path
   d="m 138.169,202.059 h -5.665 l 1.745,-1.81 c 0.461,-0.479 0.822,-0.885 1.083,-1.218 0.261,-0.333 0.456,-0.615 0.583,-0.845 0.128,-0.23 0.207,-0.417 0.238,-0.56 0.031,-0.143 0.047,-0.264 0.047,-0.364 0,-0.106 -0.017,-0.208 -0.051,-0.308 -0.035,-0.099 -0.086,-0.188 -0.154,-0.266 -0.069,-0.078 -0.151,-0.14 -0.248,-0.187 -0.096,-0.046 -0.21,-0.07 -0.34,-0.07 -0.249,0 -0.444,0.081 -0.584,0.243 -0.14,0.162 -0.21,0.364 -0.21,0.607 0,0.068 0.01,0.168 0.028,0.298 h -1.997 c 0,-0.41 0.067,-0.784 0.201,-1.12 0.133,-0.336 0.322,-0.625 0.564,-0.868 0.243,-0.242 0.531,-0.429 0.864,-0.56 0.333,-0.13 0.698,-0.196 1.096,-0.196 0.392,0 0.755,0.063 1.088,0.187 0.333,0.125 0.62,0.299 0.863,0.523 0.243,0.224 0.432,0.49 0.569,0.798 0.137,0.308 0.206,0.642 0.206,1.003 0,0.386 -0.083,0.742 -0.248,1.069 -0.165,0.326 -0.427,0.661 -0.788,1.003 l -1.167,1.092 h 2.277 z"
   style="fill-rule:nonzero"
   id="path356" />
            </g>
            <g
   id="g364">
                <circle
   cx="135.33701"
   cy="217.40401"
   r="5.5890002"
   style="fill:#ffffff"
   id="circle360" />
                <path
   d="m 135.761,218.076 v -2.772 l -1.614,2.772 z m 1.699,0 h 0.849 v 1.4 h -0.849 v 1.447 h -1.699 v -1.447 h -3.397 V 218.3 l 2.688,-4.415 h 2.408 z"
   style="fill-rule:nonzero"
   id="path362" />
            </g>
            <g
   id="g370">
                <circle
   cx="135.33701"
   cy="236.394"
   r="5.5890002"
   style="fill:#ffffff"
   id="circle366" />
                <path
   d="m 134.497,237.789 c 0,0.118 0.021,0.23 0.065,0.336 0.044,0.106 0.103,0.198 0.177,0.275 0.075,0.078 0.164,0.14 0.266,0.187 0.103,0.047 0.213,0.07 0.332,0.07 0.112,0 0.219,-0.023 0.322,-0.07 0.102,-0.047 0.193,-0.109 0.27,-0.187 0.078,-0.077 0.139,-0.168 0.182,-0.27 0.044,-0.103 0.066,-0.213 0.066,-0.332 0,-0.236 -0.083,-0.437 -0.248,-0.602 -0.165,-0.164 -0.362,-0.247 -0.592,-0.247 -0.237,0 -0.436,0.083 -0.598,0.247 -0.161,0.165 -0.242,0.363 -0.242,0.593 z m 0.065,-3.117 c 0,0.218 0.075,0.403 0.224,0.555 0.149,0.153 0.333,0.229 0.551,0.229 0.112,0 0.214,-0.022 0.308,-0.066 0.093,-0.043 0.174,-0.101 0.242,-0.172 0.069,-0.072 0.123,-0.154 0.164,-0.248 0.04,-0.093 0.06,-0.189 0.06,-0.289 0,-0.211 -0.074,-0.393 -0.224,-0.546 -0.149,-0.152 -0.333,-0.229 -0.55,-0.229 -0.218,0 -0.402,0.075 -0.551,0.224 -0.149,0.15 -0.224,0.33 -0.224,0.542 z m -0.523,1.53 c -0.734,-0.304 -1.101,-0.821 -1.101,-1.549 0,-0.299 0.059,-0.568 0.177,-0.807 0.119,-0.24 0.282,-0.447 0.49,-0.621 0.209,-0.174 0.461,-0.308 0.756,-0.401 0.296,-0.094 0.621,-0.14 0.976,-0.14 0.354,0 0.679,0.046 0.975,0.14 0.296,0.093 0.548,0.227 0.756,0.401 0.208,0.174 0.372,0.381 0.49,0.621 0.118,0.239 0.177,0.508 0.177,0.807 0,0.187 -0.018,0.353 -0.056,0.499 -0.037,0.147 -0.101,0.28 -0.191,0.402 -0.09,0.121 -0.208,0.235 -0.355,0.34 -0.146,0.106 -0.328,0.209 -0.546,0.308 0.959,0.374 1.438,0.977 1.438,1.811 0,0.299 -0.067,0.576 -0.201,0.831 -0.134,0.255 -0.32,0.476 -0.56,0.662 -0.24,0.187 -0.523,0.333 -0.849,0.439 -0.327,0.106 -0.686,0.159 -1.078,0.159 -0.38,0 -0.733,-0.052 -1.06,-0.154 -0.326,-0.103 -0.611,-0.248 -0.854,-0.434 -0.242,-0.187 -0.432,-0.408 -0.569,-0.663 -0.137,-0.255 -0.205,-0.535 -0.205,-0.84 0,-0.852 0.463,-1.456 1.39,-1.811 z"
   style="fill-rule:nonzero"
   id="path368" />
            </g>
        </g>
        <g
   id="g384">
            <path
   d="M 67.191,176.244 82.125,157.858"
   style="fill:none;stroke:#ffffff;stroke-width:0.87px;stroke-linecap:butt;stroke-linejoin:miter;stroke-miterlimit:10"
   id="path374" />
            <path
   d="m 31.952,339.426 v -30.24"
   style="fill:none;stroke:#ffffff;stroke-width:1px;stroke-linecap:butt;stroke-linejoin:miter;stroke-miterlimit:1"
   id="path376" />
            <path
   d="m 50.445,277.309 h 31.336 v -47.29 l -12.34,-10.542"
   style="fill:none;stroke:#ffffff;stroke-width:1px;stroke-linecap:butt;stroke-linejoin:miter;stroke-miterlimit:10"
   id="path378" />
            <circle
   cx="81.780998"
   cy="277.30899"
   r="3.898"
   id="circle380" />
            <path
   d="m 81.781,273.411 c 2.151,0 3.898,1.747 3.898,3.898 0,2.151 -1.747,3.898 -3.898,3.898 -2.151,0 -3.897,-1.747 -3.897,-3.898 0,-2.151 1.746,-3.898 3.897,-3.898 z m 0,1 c 1.599,0 2.898,1.299 2.898,2.898 0,1.599 -1.299,2.898 -2.898,2.898 -1.599,0 -2.897,-1.299 -2.897,-2.898 0,-1.599 1.298,-2.898 2.897,-2.898 z"
   style="fill:#ffffff"
   id="path382" />
        </g>
        <g
   id="g396">
            <path
   d="M 163.222,176.244 148.288,157.858"
   style="fill:none;stroke:#ffffff;stroke-width:0.87px;stroke-linecap:butt;stroke-linejoin:miter;stroke-miterlimit:10"
   id="path386" />
            <path
   d="m 198.461,339.426 v -30.24"
   style="fill:none;stroke:#ffffff;stroke-width:1px;stroke-linecap:butt;stroke-linejoin:miter;stroke-miterlimit:1"
   id="path388" />
            <path
   d="m 179.968,277.309 h -31.336 v -47.29 l 12.34,-10.542"
   style="fill:none;stroke:#ffffff;stroke-width:1px;stroke-linecap:butt;stroke-linejoin:miter;stroke-miterlimit:10"
   id="path390" />
            <circle
   cx="148.632"
   cy="277.30899"
   r="3.898"
   id="circle392" />
            <path
   d="m 148.632,273.411 c -2.151,0 -3.898,1.747 -3.898,3.898 0,2.151 1.747,3.898 3.898,3.898 2.151,0 3.898,-1.747 3.898,-3.898 0,-2.151 -1.747,-3.898 -3.898,-3.898 z m 0,1 c 1.599,0 2.898,1.299 2.898,2.898 0,1.599 -1.299,2.898 -2.898,2.898 -1.599,0 -2.898,-1.299 -2.898,-2.898 0,-1.599 1.299,-2.898 2.898,-2.898 z"
   style="fill:#ffffff"
   id="path394" />
        </g>
        <circle
   cx="67.126999"
   cy="382.021"
   r="2.98"
   style="fill:none;stroke:#525252;stroke-width:1.07px;stroke-linecap:butt;stroke-linejoin:miter;stroke-miterlimit:10"
   id="circle398" />
        <circle
   cx="163.27299"
   cy="382.021"
   r="2.98"
   style="fill:none;stroke:#525252;stroke-width:1.07px;stroke-linecap:butt;stroke-linejoin:miter;stroke-miterlimit:10"
   id="circle400" />
        <path
   d="m 70.107,382.021 h 90.186"
   style="fill:none;stroke:#525252;stroke-width:1.07px;stroke-linecap:butt;stroke-linejoin:miter;stroke-miterlimit:10"
   id="path402" />
        <path
   d="m 130.216,388.282 h 9.333 l 2.74,-3.426 h -9.333 z m -30.187,0 h -9.334 l -2.739,-3.426 h 9.333 z m -13.845,0 h -9.333 l -2.74,-3.426 h 9.333 z m 30.032,0 h 9.333 l 2.74,-3.426 h -9.334 z m -2.187,0 h -9.334 l -2.739,-3.426 h 9.333 z m 30.187,0 h 9.333 l 2.74,-3.426 h -9.333 z"
   style="fill:#525252"
   id="path404" />
        <path
   d="m 128.289,379.187 h -9.334 l -2.739,-3.426 h 9.333 z m -40.178,0 h 9.334 l 2.739,-3.426 h -9.333 z m 54.022,0 H 132.8 l -2.74,-3.426 h 9.334 z m -68.022,0 h 9.333 l 2.74,-3.426 h -9.333 z m 82.023,0 H 146.8 l -2.739,-3.426 h 9.333 z m -54.023,0 h 9.334 l 2.739,-3.426 h -9.333 z"
   style="fill:#525252"
   id="path406" />
        <g
   id="g472">
            <path
   d="m 111.731,477.462 c -1.818,0 -4.428,-8.537 -6.246,-8.537 -1.818,0 -1.485,8.58 -3.303,8.58 -1.817,0 -1.56,-8.58 -3.378,-8.58 -1.818,0 -0.96,8.58 -2.778,8.58 -0.681,0 -1.061,-1.206 -1.364,-2.714 -0.507,-2.514 -0.803,-5.866 -1.939,-5.866 -1.818,0 -1.275,8.657 -3.093,8.657 -1.817,0 -1.817,-8.58 -3.635,-8.58 -1.817,0 -0.123,8.58 -1.94,8.58 -1.818,0 -1.818,-8.58 -3.635,-8.58"
   style="fill:none;fill-rule:nonzero;stroke:#ffffff;stroke-width:1px;stroke-linecap:round;stroke-linejoin:miter;stroke-miterlimit:4"
   id="path408" />
            <g
   transform="translate(-33.1507,-2.10541)"
   id="g470">
                <g
   transform="matrix(12,0,0,12,112.029,468.105)"
   id="g412">
                    <rect
   x="0.090000004"
   y="-0.75400001"
   width="0.114"
   height="0.75400001"
   style="fill:#ffffff;fill-rule:nonzero"
   id="rect410" />
                </g>
                <g
   transform="matrix(12,0,0,12,115.568,468.105)"
   id="g416">
                    <path
   d="m 0.09,0 v -0.805 l 0.55,0.575 v -0.524 h 0.114 v 0.8 L 0.204,-0.528 V 0 Z"
   style="fill:#ffffff;fill-rule:nonzero"
   id="path414" />
                </g>
                <g
   transform="matrix(12,0,0,12,125.699,468.105)"
   id="g420">
                    <path
   d="M 0.467,-0.647 H 0.204 v 0.181 h 0.254 v 0.107 H 0.204 V 0 H 0.09 v -0.754 h 0.377 z"
   style="fill:#ffffff;fill-rule:nonzero"
   id="path418" />
                </g>
                <g
   transform="matrix(12,0,0,12,131.798,468.105)"
   id="g424">
                    <path
   d="M 0.346,-0.321 0.579,0 H 0.44 L 0.225,-0.309 H 0.204 V 0 H 0.09 v -0.754 h 0.134 c 0.099,0 0.171,0.019 0.215,0.056 0.049,0.042 0.074,0.097 0.074,0.165 0,0.054 -0.016,0.1 -0.046,0.138 -0.031,0.038 -0.071,0.063 -0.121,0.074 z M 0.204,-0.408 H 0.24 c 0.108,0 0.162,-0.041 0.162,-0.123 0,-0.077 -0.053,-0.116 -0.157,-0.116 H 0.204 Z"
   style="fill:#ffffff;fill-rule:nonzero"
   id="path422" />
                </g>
                <g
   transform="matrix(12,0,0,12,139.023,468.105)"
   id="g428">
                    <path
   d="M 0.533,-0.183 H 0.21 L 0.126,0 H 0.004 L 0.377,-0.801 0.737,0 H 0.612 Z M 0.487,-0.29 0.375,-0.546 0.258,-0.29 Z"
   style="fill:#ffffff;fill-rule:nonzero"
   id="path426" />
                </g>
                <g
   transform="matrix(12,0,0,12,147.912,468.105)"
   id="g432">
                    <path
   d="M 0.517,-0.642 0.424,-0.587 C 0.407,-0.617 0.391,-0.636 0.375,-0.646 0.359,-0.656 0.338,-0.661 0.312,-0.661 c -0.032,0 -0.058,0.009 -0.079,0.027 -0.02,0.017 -0.031,0.039 -0.031,0.066 0,0.037 0.027,0.067 0.082,0.089 l 0.075,0.031 c 0.062,0.024 0.106,0.055 0.135,0.09 0.028,0.036 0.042,0.08 0.042,0.131 0,0.07 -0.023,0.127 -0.069,0.172 C 0.42,-0.009 0.362,0.014 0.293,0.014 0.228,0.014 0.174,-0.006 0.131,-0.044 0.089,-0.083 0.063,-0.138 0.053,-0.208 l 0.115,-0.025 c 0.005,0.044 0.014,0.074 0.027,0.091 0.024,0.033 0.058,0.049 0.103,0.049 0.035,0 0.065,-0.012 0.088,-0.035 0.024,-0.024 0.035,-0.054 0.035,-0.091 0,-0.014 -0.002,-0.028 -0.006,-0.04 C 0.411,-0.271 0.405,-0.282 0.396,-0.293 0.388,-0.303 0.376,-0.313 0.363,-0.322 0.349,-0.33 0.333,-0.339 0.314,-0.347 L 0.241,-0.377 C 0.138,-0.421 0.086,-0.485 0.086,-0.569 c 0,-0.056 0.022,-0.104 0.065,-0.142 0.044,-0.038 0.098,-0.058 0.162,-0.058 0.087,0 0.155,0.043 0.204,0.127 z"
   style="fill:#ffffff;fill-rule:nonzero"
   id="path430" />
                </g>
                <g
   transform="matrix(12,0,0,12,154.908,468.105)"
   id="g436">
                    <path
   d="m 0.053,-0.38 c 0,-0.106 0.039,-0.198 0.116,-0.274 0.078,-0.076 0.171,-0.114 0.28,-0.114 0.107,0 0.199,0.038 0.276,0.115 0.077,0.077 0.116,0.169 0.116,0.277 0,0.108 -0.039,0.2 -0.116,0.276 C 0.647,-0.024 0.553,0.014 0.443,0.014 0.346,0.014 0.258,-0.02 0.181,-0.087 0.095,-0.162 0.053,-0.26 0.053,-0.38 Z m 0.114,0.001 c 0,0.083 0.028,0.152 0.084,0.206 0.056,0.053 0.12,0.08 0.193,0.08 0.079,0 0.146,-0.027 0.201,-0.082 0.054,-0.055 0.081,-0.123 0.081,-0.202 0,-0.08 -0.027,-0.148 -0.08,-0.202 -0.054,-0.055 -0.12,-0.082 -0.199,-0.082 -0.078,0 -0.144,0.027 -0.198,0.082 -0.055,0.054 -0.082,0.121 -0.082,0.2 z"
   style="fill:#ffffff;fill-rule:nonzero"
   id="path434" />
                </g>
                <g
   transform="matrix(12,0,0,12,165.63,468.105)"
   id="g440">
                    <path
   d="m 0.09,0 v -0.805 l 0.55,0.575 v -0.524 h 0.114 v 0.8 L 0.204,-0.528 V 0 Z"
   style="fill:#ffffff;fill-rule:nonzero"
   id="path438" />
                </g>
                <g
   transform="matrix(12,0,0,12,175.761,468.105)"
   id="g444">
                    <rect
   x="0.090000004"
   y="-0.75400001"
   width="0.114"
   height="0.75400001"
   style="fill:#ffffff;fill-rule:nonzero"
   id="rect442" />
                </g>
                <g
   transform="matrix(12,0,0,12,179.3,468.105)"
   id="g448">
                    <path
   d="m 0.647,-0.713 v 0.134 C 0.582,-0.634 0.514,-0.661 0.443,-0.661 c -0.077,0 -0.142,0.028 -0.195,0.083 -0.054,0.056 -0.081,0.123 -0.081,0.203 0,0.08 0.027,0.146 0.081,0.201 0.053,0.054 0.118,0.081 0.196,0.081 0.04,0 0.074,-0.006 0.102,-0.019 0.016,-0.007 0.032,-0.016 0.048,-0.027 0.017,-0.011 0.035,-0.024 0.053,-0.04 v 0.137 C 0.582,-0.005 0.514,0.014 0.442,0.014 0.335,0.014 0.243,-0.024 0.167,-0.099 0.091,-0.175 0.053,-0.266 0.053,-0.374 c 0,-0.096 0.031,-0.181 0.095,-0.256 0.078,-0.092 0.179,-0.139 0.303,-0.139 0.068,0 0.133,0.019 0.196,0.056 z"
   style="fill:#ffffff;fill-rule:nonzero"
   id="path446" />
                </g>
                <g
   transform="matrix(12,0,0,12,147.326,480.462)"
   id="g452">
                    <path
   d="M 0.533,-0.183 H 0.21 L 0.126,0 H 0.004 L 0.377,-0.801 0.737,0 H 0.612 Z M 0.487,-0.29 0.375,-0.546 0.258,-0.29 Z"
   style="fill:#ffffff;fill-rule:nonzero"
   id="path450" />
                </g>
                <g
   transform="matrix(12,0,0,12,155.869,480.462)"
   id="g456">
                    <path
   d="M 0.204,-0.754 V -0.3 c 0,0.065 0.011,0.112 0.032,0.142 0.031,0.044 0.076,0.065 0.133,0.065 0.058,0 0.102,-0.021 0.134,-0.065 0.021,-0.029 0.032,-0.076 0.032,-0.142 v -0.454 h 0.113 v 0.485 c 0,0.08 -0.024,0.145 -0.074,0.197 C 0.519,-0.015 0.45,0.014 0.369,0.014 0.288,0.014 0.22,-0.015 0.165,-0.072 0.115,-0.124 0.09,-0.189 0.09,-0.269 v -0.485 z"
   style="fill:#ffffff;fill-rule:nonzero"
   id="path454" />
                </g>
                <g
   transform="matrix(12,0,0,12,164.734,480.462)"
   id="g460">
                    <path
   d="m 0.09,0 v -0.754 h 0.159 c 0.075,0 0.135,0.008 0.179,0.023 0.047,0.014 0.09,0.039 0.129,0.074 0.077,0.071 0.116,0.164 0.116,0.28 0,0.116 -0.04,0.21 -0.121,0.281 C 0.511,-0.06 0.468,-0.035 0.424,-0.021 0.382,-0.007 0.323,0 0.247,0 Z m 0.114,-0.107 h 0.051 c 0.051,0 0.094,-0.005 0.128,-0.016 0.034,-0.011 0.064,-0.03 0.092,-0.054 0.056,-0.051 0.084,-0.118 0.084,-0.2 0,-0.083 -0.028,-0.15 -0.083,-0.201 C 0.426,-0.624 0.352,-0.647 0.255,-0.647 H 0.204 Z"
   style="fill:#ffffff;fill-rule:nonzero"
   id="path458" />
                </g>
                <g
   transform="matrix(12,0,0,12,173.447,480.462)"
   id="g464">
                    <rect
   x="0.090000004"
   y="-0.75400001"
   width="0.114"
   height="0.75400001"
   style="fill:#ffffff;fill-rule:nonzero"
   id="rect462" />
                </g>
                <g
   transform="matrix(12,0,0,12,176.986,480.462)"
   id="g468">
                    <path
   d="m 0.053,-0.38 c 0,-0.106 0.039,-0.198 0.116,-0.274 0.078,-0.076 0.171,-0.114 0.28,-0.114 0.107,0 0.199,0.038 0.276,0.115 0.077,0.077 0.116,0.169 0.116,0.277 0,0.108 -0.039,0.2 -0.116,0.276 C 0.647,-0.024 0.553,0.014 0.443,0.014 0.346,0.014 0.258,-0.02 0.181,-0.087 0.095,-0.162 0.053,-0.26 0.053,-0.38 Z m 0.114,0.001 c 0,0.083 0.028,0.152 0.084,0.206 0.056,0.053 0.12,0.08 0.193,0.08 0.079,0 0.146,-0.027 0.201,-0.082 0.054,-0.055 0.081,-0.123 0.081,-0.202 0,-0.08 -0.027,-0.148 -0.08,-0.202 -0.054,-0.055 -0.12,-0.082 -0.199,-0.082 -0.078,0 -0.144,0.027 -0.198,0.082 -0.055,0.054 -0.082,0.121 -0.082,0.2 z"
   style="fill:#ffffff;fill-rule:nonzero"
   id="path466" />
                </g>
            </g>
        </g>
    </g><g
     id="components"
     style="display:none">
        <circle
   id="LED4"
   cx="115.2"
   cy="236.149"
   r="5.099"
   style="fill:#ff00ff" />
        <circle
   id="LED3"
   cx="115.2"
   cy="217.159"
   r="5.099"
   style="fill:#ff00ff" />
        <circle
   id="LED2"
   cx="115.2"
   cy="198.202"
   r="5.099"
   style="fill:#ff00ff" />
        <circle
   id="LED1"
   cx="115.2"
   cy="179.136"
   r="5.099"
   style="fill:#ff00ff" />
        <ellipse
   id="MOD"
   cx="198.30499"
   cy="415.85699"
   rx="6.7789998"
   ry="6.803"
   style="fill:#0000ff" />
        <ellipse
   id="WARP"
   cx="156.717"
   cy="415.85699"
   rx="6.7789998"
   ry="6.803"
   style="fill:#0000ff" />
        <ellipse
   id="EXT_PM"
   cx="115.129"
   cy="415.85699"
   rx="6.7789998"
   ry="6.803"
   style="fill:#00ff00" />
        <ellipse
   id="LEVEL"
   cx="73.541"
   cy="415.85699"
   rx="6.7789998"
   ry="6.803"
   style="fill:#00ff00" />
        <ellipse
   id="PITCH_CV"
   cx="31.952"
   cy="415.85699"
   rx="6.7789998"
   ry="6.803"
   style="fill:#00ff00" />
        <ellipse
   id="PD1_CV"
   cx="31.952"
   cy="358.97501"
   rx="6.7789998"
   ry="6.803"
   style="fill:#00ff00" />
        <ellipse
   id="PD2_CV"
   cx="198.461"
   cy="359.97501"
   rx="6.7789998"
   ry="6.803"
   style="fill:#00ff00" />
        <circle
   id="ROUTING"
   cx="88.815002"
   cy="327.64001"
   r="11.267"
   style="fill:#ff0000" />
        <circle
   id="WINDOW"
   cx="141.58501"
   cy="327.64001"
   r="11.267"
   style="fill:#ff0000" />
        <circle
   id="PD2_ATTEN"
   cx="198.461"
   cy="277.30899"
   r="11.267"
   style="fill:#ff0000" />
        <circle
   id="PD1_ATTEN"
   cx="31.952"
   cy="277.30899"
   r="11.267"
   style="fill:#ff0000" />
        <circle
   id="PD2"
   cx="183.175"
   cy="200.811"
   r="24.566999"
   style="fill:#ff0000" />
        <circle
   id="PD1"
   cx="47.237"
   cy="200.811"
   r="24.566999"
   style="fill:#ff0000" />
        <circle
   id="ALG2"
   cx="139.70599"
   cy="147.189"
   r="8.665"
   style="fill:#ff0000" />
        <circle
   id="ALG1"
   cx="90.790001"
   cy="147.189"
   r="8.665"
   style="fill:#ff0000" />
        <circle
   id="INT_PM"
   cx="183.175"
   cy="86.280998"
   r="24.566999"
   style="fill:#ff0000" />
        <circle
   id="TUNE_COARSE"
   cx="47.308998"
   cy="86.280998"
   r="24.566999"
   style="fill:#ff0000" />
    </g></g>
</svg>
